<svg xmlns="http://www.w3.org/2000/svg" viewBox="0 0 512 512">
  <defs>
    <linearGradient id="grad1" x1="0%" y1="0%" x2="100%" y2="100%">
      <stop offset="0%" style="stop-color:#3b82f6;stop-opacity:1" />
      <stop offset="100%" style="stop-color:#8b5cf6;stop-opacity:1" />
    </linearGradient>
    <filter id="shadow" x="-20%" y="-20%" width="140%" height="140%">
      <feDropShadow dx="0" dy="4" stdDeviation="8" flood-opacity="0.3"/>
    </filter>
  </defs>
  <rect width="512" height="512" rx="128" fill="url(#grad1)" />
  <path d="M352 144H160c-17.67 0-32 14.33-32 32v160c0 17.67 14.33 32 32 32h192c17.67 0 32-14.33 32-32V176c0-17.67-14.33-32-32-32zM216 320h-32v-32h32v32zm0-64h-32v-32h32v32zm0-64h-32v-32h32v32zm80 128h-32v-32h32v32zm0-64h-32v-32h32v32zm0-64h-32v-32h32v32zm80 128h-32v-32h32v32zm0-64h-32v-32h32v32zm0-64h-32v-32h32v32z" fill="white" filter="url(#shadow)"/>
  <path d="M160 144v-32c0-17.67 14.33-32 32-32h128c17.67 0 32 14.33 32 32v32" stroke="white" stroke-width="24" stroke-linecap="round" fill="none" opacity="0.5"/>
</svg>
